<?xml version="1.0" encoding="utf-8" ?><svg xmlns="http://www.w3.org/2000/svg" xmlns:xlink="http://www.w3.org/1999/xlink" width="1024" height="1024" viewBox="0 0 1024 1024"><path fill="#0C0825" d="M0 0L1024 0L1024 1024L0 1024L0 0Z"/><path fill="#9637E3" d="M498.903 194.784C499.819 194.67 500.577 194.569 501.503 194.529C565.566 191.792 627.034 215.147 674.009 258.232C721.225 301.018 749.383 360.901 752.215 424.557C754.275 474.213 739.49 515.029 718.047 558.732C699.597 596.335 679.428 629.567 655.972 664.219C614.657 724.586 568.916 781.802 519.127 835.394L512.394 842.726C444.527 770.73 381.644 690.81 331.26 605.575C303.148 558.02 276.946 504.03 272.675 448.166C268.063 387.858 291.396 324.696 330.509 279.089C373.025 229.492 433.721 199.105 498.903 194.784Z"/><defs><linearGradient id="gradient_0" gradientUnits="userSpaceOnUse" x1="509.58063" y1="251.4745" x2="515.46033" y2="616.06512"><stop offset="0" stop-color="#1F0545"/><stop offset="1" stop-color="#430E7A"/></linearGradient></defs><path fill="url(#gradient_0)" d="M502.402 251.318C603.195 245.695 689.493 322.777 695.241 423.563C700.989 524.349 624.014 610.743 523.236 616.616C422.28 622.499 335.701 545.359 329.943 444.397C324.185 343.434 401.432 256.951 502.402 251.318Z"/><path fill="#D4BDFC" d="M372.613 440.897C370.542 389.538 396.77 341.172 440.943 314.89C485.116 288.608 540.137 288.634 584.285 314.958C628.433 341.282 654.615 389.674 652.494 441.031C649.396 516.097 587.62 575.347 512.49 575.311C437.359 575.275 375.64 515.966 372.613 440.897Z"/><defs><linearGradient id="gradient_1" gradientUnits="userSpaceOnUse" x1="531.91022" y1="572.40247" x2="508.2883" y2="420.3981"><stop offset="0" stop-color="#B473F8"/><stop offset="1" stop-color="#D2B7FD"/></linearGradient></defs><path fill="url(#gradient_1)" d="M372.613 440.897C374.175 440.896 379.215 441.002 380.533 440.866C395.688 441.291 411.263 440.838 426.445 440.906C431.448 440.929 432.078 444.021 436.141 441.384C436.949 440.861 438.151 441.024 439.131 441.073L439.662 441.083C446.067 441.279 452.396 440.616 458.452 440.952C469.358 441.086 480.264 441.128 491.17 441.08C495.403 441.079 504.43 440.844 508.436 441.222C532.366 440.527 557.935 441.257 581.977 441.456C588.91 441.513 596.653 440.649 603.335 441.11C616.532 440.98 631.379 440.781 644.49 441.143C645.755 441.145 651.622 441.231 652.494 441.031C649.396 516.097 587.62 575.347 512.49 575.311C437.359 575.275 375.64 515.966 372.613 440.897Z"/><path fill="#3B0C6F" d="M439.131 441.073L439.662 441.083C441.834 443.892 441.4 455.207 441.424 459.328C441.47 467.172 449.761 491.058 447.681 497.13C448.318 501.97 448.79 511.5 452.319 515.179C453.403 516.31 455.792 516.517 457.37 516.686C464.793 535.749 472.746 549.288 488.438 562.686L489.202 563.31L488.848 563.796C485.977 563.737 482.742 562.879 479.888 562.263C463.875 559.755 438.037 545.754 426.092 534.847C397.252 508.51 382.905 479.536 380.533 440.866C395.688 441.291 411.263 440.838 426.445 440.906C431.448 440.929 432.078 444.021 436.141 441.384C436.949 440.861 438.151 441.024 439.131 441.073Z"/><path fill="#CCA7FA" d="M439.131 441.073L439.662 441.083C441.834 443.892 441.4 455.207 441.424 459.328C441.47 467.172 449.761 491.058 447.681 497.13C446.718 491.716 446.431 485.293 444.838 480.191C444.195 479.709 443.559 479.216 442.932 478.713C439.587 476.033 436.804 472.748 434.652 469.142C426.595 455.64 437.423 457.928 435.92 444.662C436.478 442.877 437.634 442.267 439.131 441.073Z"/><path fill="#3B0C6F" d="M603.335 441.11C616.532 440.98 631.379 440.781 644.49 441.143C643.205 476.501 627.871 508.321 601.79 531.877C581.615 550.098 561.642 559.511 535.166 564.423C556.196 548.418 569.436 518.871 577.424 494.438C578.204 492.05 580.173 490.486 582.059 488.977C581.807 486.235 581.608 483.832 581.117 481.106C594.55 473.636 589.928 473.095 588.04 459.561C591.759 452.087 598.448 449.107 603.335 441.11Z"/><path fill="#CCA7FA" d="M601.391 470.793C602.808 471.716 603.949 474.443 603.243 475.863C600.311 481.756 601.564 489.304 594.957 491.695C589.813 486.693 595.603 485.866 594.002 480.746C592.713 476.625 597.93 476.392 600.391 472.424L601.391 470.793Z"/><path fill="#3B0C6F" d="M458.452 440.952C469.358 441.086 480.264 441.128 491.17 441.08C495.403 441.079 504.43 440.844 508.436 441.222L508.517 565.619C486.239 554.241 473.264 535.632 464.355 512.626C465.791 511.647 466.949 511.057 467.875 509.602C467.514 508.174 467.403 508.203 467.771 506.811C469.078 506.629 470.386 506.455 471.695 506.29C473.96 504.584 476.489 500.539 476.892 497.815C477.94 490.737 480.89 490.438 487.306 488.837C489.482 483.349 489.611 480.985 490.117 475.057C492.696 471.715 497.253 466.851 492.728 462.636C490.71 460.756 486.831 459.221 484.023 459.533C480.26 459.952 480.324 455.851 476.021 455.915L474.269 455.932L473.312 455.946C474.213 450.955 474.166 449.414 469.085 446.839C463.121 443.818 461.735 447.738 458.452 440.952Z"/><path fill="#3B0C6F" d="M538.018 443.438C542.737 443.984 540.379 447.455 546.685 447.014L547.286 447.675C547.441 450.57 546.725 453.329 546.173 456.2C550.87 461.298 551.157 461.909 552.701 468.536C551.685 471.359 550.382 474.456 549.29 477.306C551.606 483.481 552.234 486.494 553.591 492.994C554.521 497.444 556.565 501.489 557.502 506.493L564.231 504.891C559.206 522.271 546.799 542.182 533.617 554.61C527.663 559.497 523.464 562.65 516.748 566.392C516.326 553.585 516.676 538.771 516.634 525.779L516.541 444.282L522.742 447.177C528.834 445.307 530.866 446.516 538.018 443.438Z"/><path fill="#280754" d="M470.654 340.656C480.277 325.705 491.066 311.48 508.389 304.887L508.388 432.496C488.022 432.481 466.199 432.835 445.937 432.268C445.953 430.004 445.51 426.075 446.628 424.432C446.225 423.815 445.718 422.973 445.252 422.426L445.721 422.232C447.495 421.48 447.356 421.506 449.201 421.452L449.777 420.789L446.405 419.954C446.733 414.172 445.805 408.272 445.68 402.474C445.512 394.728 446.183 391.072 452.983 387.136C453.875 385.166 454.353 383.413 456.084 382.275C457.913 381.807 458.578 382.259 460.361 382.911C459.724 381.71 458.832 380.85 459.343 379.496C459.622 378.756 459.989 379.185 460.413 379.542C464.54 373.373 452.324 378.012 458.389 373.371C459.811 372.283 464.764 375.061 467.349 372.212L467.731 371.799C467.408 371.603 467.512 371.715 467.368 371.522C467.352 371.348 467.34 371.442 467.419 371.239C468.244 370.799 473.257 370.542 470.65 368.415L470.658 368.357C470.809 368.271 470.992 368.256 471.161 368.213C464.845 364.655 466.018 361.293 461.692 359.843C459.629 360.208 460.128 360.253 458.277 361.83C458.645 358.593 466.314 352.587 467.246 349.714C466.718 346.334 466.941 346.391 469.139 343.794C473.934 348.488 473.421 350.013 476.933 355.516C478.391 357.8 482.56 357.977 485.237 358.232L488.98 352.544C479.619 349.603 476.804 343.267 470.654 340.656Z"/><path fill="#1E0846" d="M467.731 371.799C472.253 370.922 470.5 373.204 468.833 376.67C468.098 377.461 467.327 378.156 466.633 378.951C462.915 378.472 463.564 379.391 460.413 379.542C464.54 373.373 452.324 378.012 458.389 373.371C459.811 372.283 464.764 375.061 467.349 372.212L467.731 371.799Z"/><path fill="#E1C8FC" d="M471.161 368.213C473.424 369.524 470.989 371.979 472.763 374.253C474.071 375.928 476.205 374.904 476.418 376.878C476.436 377.644 475.583 378.678 474.782 378.327C474.268 378.25 473.755 378.173 473.242 378.097C471.778 377.92 470.974 378.027 469.5 377.719L468.833 376.67C470.5 373.204 472.253 370.922 467.731 371.799C467.408 371.603 467.512 371.715 467.368 371.522C467.352 371.348 467.34 371.442 467.419 371.239C468.244 370.799 473.257 370.542 470.65 368.415L470.658 368.357C470.809 368.271 470.992 368.256 471.161 368.213Z"/><path fill="#E1C8FC" d="M460.413 379.542C463.564 379.391 462.915 378.472 466.633 378.951L466.695 379.737C464.397 381.644 463.169 381.775 460.361 382.911C459.724 381.71 458.832 380.85 459.343 379.496C459.622 378.756 459.989 379.185 460.413 379.542Z"/><path fill="#F5ECFF" d="M449.777 420.789C459.816 422.366 454.229 424.315 448.208 424.517C448.532 423.493 448.863 422.471 449.201 421.452L449.777 420.789Z"/><path fill="#1E0846" d="M445.252 422.426L445.721 422.232C447.495 421.48 447.356 421.506 449.201 421.452C448.863 422.471 448.532 423.493 448.208 424.517C447.424 425.202 447.277 425.169 446.628 424.432C446.225 423.815 445.718 422.973 445.252 422.426Z"/><path fill="#3B0C6F" d="M466.633 378.951C467.327 378.156 468.098 377.461 468.833 376.67L469.5 377.719C468.236 378.617 468.159 379.077 466.695 379.737L466.633 378.951Z"/><path fill="#280754" d="M517.002 305.423C535.308 312.197 546.573 326.583 557.077 342.137C547.551 344.862 547.648 348.869 538.135 353.909C538.016 356.461 537.803 357.259 538.62 359.595C540.988 361.575 543.952 357.757 546.202 360.435C546.093 362.548 545.643 365.699 548.428 365.812C551.916 364.068 552.428 360.619 555.246 358.08L555.313 356.561C555.89 355.581 556.48 355.165 557.046 354.29C557.329 354.732 557.773 355.32 557.911 355.776C558.667 355.967 568.257 357.404 563.771 358.421C562.826 358.635 561.489 358.622 560.471 358.715C560.629 361.188 560.991 360.746 559.906 362.435C555.183 365.135 550.545 367.655 544.91 367.634C544.18 366.315 544.334 364.819 544.292 363.257C543.754 365.337 543.836 366.269 543.624 368.475C536.532 368.433 539.414 370.664 535.219 372.379L534.365 372.304C533.341 375.103 529.316 375.736 526.695 376.468L527.236 377.018C529.035 378.884 529.868 379.766 530.623 382.187C530.32 384.062 530.748 383.345 529.535 384.533C526.653 384.862 523.6 384.599 520.689 384.449C520.061 388.488 519.997 390.267 519.973 394.38C521.278 394.479 523.727 394.545 524.818 394.968C526.269 395.853 526.465 396.221 528.053 396.404C517.311 397.766 522.726 403.358 516.814 406.15C516.264 403.603 516.856 377.531 516.889 373.958L517.002 305.423Z"/><path fill="#E1C8FC" d="M527.536 366.043C527.806 365.645 528.075 365.164 528.44 364.84C530.792 368.012 532.956 369.106 535.219 372.379L534.365 372.304C532.839 372.437 526.28 373.826 525.765 373.441C525.697 373.392 525.657 373.313 525.656 373.229C525.651 371.888 527.491 372.755 526.281 369.778L526.532 369.108C527.773 367.945 528.028 367.653 527.536 366.043Z"/><path fill="#E1C8FC" d="M524.318 369.447C522.066 371.285 520.956 374.566 517.467 370.222C518.188 368.893 520.338 369.354 520.965 367.738C521.892 365.346 523.041 364.615 524.126 367.352L524.423 368.053L524.318 369.447Z"/><path fill="#E1C8FC" d="M527.536 366.043C524.834 366.66 522.76 360.839 526.745 360.465C529.1 360.243 528.981 363.117 528.44 364.84C528.075 365.164 527.806 365.645 527.536 366.043Z"/><path fill="#280754" d="M557.911 355.776C558.667 355.967 568.257 357.404 563.771 358.421C562.826 358.635 561.489 358.622 560.471 358.715C559.295 358.142 558.769 357.793 558.27 356.569L557.911 355.776Z"/><path fill="#E1C8FC" d="M543.624 368.475C543.009 366.973 541.822 365.14 542.1 363.508C542.489 361.226 546.302 361.274 544.292 363.257C543.754 365.337 543.836 366.269 543.624 368.475Z"/><path fill="#3B0C6F" d="M524.423 368.053L526.532 369.108L526.281 369.778C525.56 369.676 525.029 369.599 524.318 369.447L524.423 368.053Z"/><path fill="#280754" d="M536.895 306.584C560.793 310.14 578.53 319.698 596.96 334.753C597.977 335.36 603.533 339.095 602.569 340.573C601.112 341.106 599.328 339.549 598.974 340.52C598.829 340.919 600.001 342.049 600.206 342.054C600.557 342.063 602.059 344.088 601.205 344.188C598.596 344.492 595.034 344.781 592.356 344.862L586.798 345.367L581.932 348.831C578.27 344.225 572.54 343.6 566.584 341.539C560.474 329.934 547.57 314.363 536.895 306.584Z"/><path fill="#280754" d="M596.96 334.753C597.977 335.36 603.533 339.095 602.569 340.573C601.112 341.106 599.328 339.549 598.974 340.52C598.829 340.919 600.001 342.049 600.206 342.054C600.557 342.063 602.059 344.088 601.205 344.188C598.596 344.492 595.034 344.781 592.356 344.862L592.504 344.426C594.009 340.805 589.931 341.143 595.532 335.851C596.357 335.427 596.315 335.432 596.96 334.753Z"/><path fill="#E1C8FC" d="M595.532 335.851C589.931 341.143 594.009 340.805 592.504 344.426C590.975 343.187 590.605 343.345 588.995 342.447C584.832 340.126 589.13 336.977 591.752 336.508L595.532 335.851Z"/><path fill="#280754" d="M431.414 332.441C447.777 318.948 467.333 309.886 488.205 306.125C473.586 319.438 468.355 326.789 458.756 343.874C454.997 340.937 452.819 341.24 452.049 337.972C450.342 336.645 448.051 337.009 445.966 337.29C444.973 337.426 443.984 337.592 443.001 337.789L441.16 338.883C441.488 340.874 442.455 342.819 441.309 344.547C439.858 346.69 440.756 346.583 438.261 347.614L437.281 347.226C436.886 345.589 435.53 344.652 434.245 343.352C433.335 342.947 433.209 343 432.157 342.908L431.458 343.133C431.143 343.548 431.078 343.757 430.675 343.929C432.765 350.021 426.436 348.562 425.944 345.746C426.103 344.017 424.58 343.735 423.648 342.374C420.737 338.122 424.562 340.196 425.658 340.35C425.604 337.062 428.893 334.437 431.414 332.441Z"/><path fill="#280754" d="M431.414 332.441C431.848 332.873 431.964 333.047 432.352 333.554C433.089 333.891 433.705 334.113 434.46 334.387L433.869 335.562C434.35 336.44 434.661 336.906 435.216 337.724L435.814 338.146C436.596 339.575 436.62 340.012 435.468 341.343L434.245 343.352C433.335 342.947 433.209 343 432.157 342.908L431.458 343.133C431.143 343.548 431.078 343.757 430.675 343.929C432.765 350.021 426.436 348.562 425.944 345.746C426.103 344.017 424.58 343.735 423.648 342.374C420.737 338.122 424.562 340.196 425.658 340.35C425.604 337.062 428.893 334.437 431.414 332.441Z"/><path fill="#CCA7FA" d="M435.216 337.724L435.814 338.146C436.596 339.575 436.62 340.012 435.468 341.343L434.245 343.352C433.335 342.947 433.209 343 432.157 342.908L431.458 343.133C431.143 343.548 431.078 343.757 430.675 343.929L430.548 344.188C430.462 344.361 429.646 346.401 429.503 346.29C426.818 344.22 428.592 343.531 429.042 342.728C428.989 342.344 427.253 340.942 426.831 340.531C432.194 336.423 430.184 338.945 435.216 337.724Z"/><path fill="#3B0C6F" d="M431.458 343.133C429.111 342.615 430.136 342.6 431.194 341.475C431.194 340.994 429.79 341.128 429.639 340.683C429.307 339.705 431.241 339.406 431.858 339.715C433.434 340.537 432.933 341.682 432.157 342.908L431.458 343.133Z"/><path fill="#E1C8FC" d="M432.352 333.554C433.089 333.891 433.705 334.113 434.46 334.387L433.869 335.562C430.709 337.031 428.251 336.563 432.352 333.554Z"/><path fill="#3B0C6F" d="M442.78 335.501C442.851 335.479 443.275 335.272 443.461 335.364C443.506 335.387 443.539 335.44 443.545 335.489C443.592 335.874 443.296 336.342 443.156 336.682C443.021 337.012 443.028 337.471 443.001 337.789L441.16 338.883C441.488 340.874 442.455 342.819 441.309 344.547C439.858 346.69 440.756 346.583 438.261 347.614L437.281 347.226C436.886 345.589 435.53 344.652 434.245 343.352L435.468 341.343C436.62 340.012 436.596 339.575 435.814 338.146C437.744 338.066 441.808 337.287 442.78 335.501Z"/><path fill="#280754" d="M435.468 341.343L436.709 341.997C438.046 342.829 439.906 343.848 441.309 344.547C439.858 346.69 440.756 346.583 438.261 347.614L437.281 347.226C436.886 345.589 435.53 344.652 434.245 343.352L435.468 341.343Z"/><path fill="#CCA7FA" d="M436.709 341.997C438.234 340.731 439.465 339.902 441.16 338.883C441.488 340.874 442.455 342.819 441.309 344.547C439.906 343.848 438.046 342.829 436.709 341.997Z"/><defs><linearGradient id="gradient_2" gradientUnits="userSpaceOnUse" x1="439.61087" y1="334.18906" x2="435.44537" y2="337.38428"><stop offset="0" stop-color="#D6B7FA"/><stop offset="1" stop-color="#EFE0FF"/></linearGradient></defs><path fill="url(#gradient_2)" d="M434.46 334.387C439.031 334.432 439.103 336.485 442.78 335.501C441.808 337.287 437.744 338.066 435.814 338.146L435.216 337.724C434.661 336.906 434.35 336.44 433.869 335.562L434.46 334.387Z"/><path fill="#280754" d="M610.994 409.812C617.401 412.804 619.078 410.061 624.464 414.583C625.506 415.455 626.568 416.303 627.647 417.127L630.056 423.984C633.756 419.139 637.086 414.833 641.625 410.666C643.929 417.781 644.538 425.371 644.522 432.817C626.609 433.011 608.694 432.882 590.786 432.428C589.435 430.43 589.259 430.046 587.463 428.52L584.779 418.537C589.511 418.547 590.109 427.573 592.921 430.445C597.433 431.632 613.652 421.648 614.934 416.369C615.312 414.816 611.63 412.86 610.399 410.536L610.994 409.812Z"/><path fill="#280754" d="M380.396 432.806C380.598 426.246 381.267 419.71 382.398 413.246C382.753 411.22 386.063 396.252 387.286 396.201C388.288 400.651 391.009 401.499 391.032 404.008C391.061 407.091 392.039 406.464 392.467 408.911C392.886 408.774 393.498 408.599 393.895 408.397C393.605 407.358 393.672 403.981 394.855 405.611C395.972 407.15 396.142 408.907 397.932 411.3C398.572 412.153 399.19 413.023 399.784 413.908C402.809 418.306 400.452 419.586 401.087 420.734C402.192 422.727 411.892 428.222 413.969 427.921C420.208 427.018 415.33 427.572 420.537 431.063L419.692 432.706C407.743 432.238 392.759 432.888 380.396 432.806Z"/><path fill="#E1C8FC" d="M392.467 408.911C392.886 408.774 393.498 408.599 393.895 408.397C395.552 410.708 395.722 412.289 396.803 414.881C397.926 417.574 394.529 415.768 394.637 414.497C394.939 410.96 391.069 412.739 392.467 408.911Z"/><path fill="#280754" d="M555.607 387.829C554.774 387.268 547.079 382.473 548.792 381.138C549.135 380.869 549.575 380.754 550.006 380.82C550.686 380.931 555.483 385.071 556.984 386.053L558.546 387.097L558.341 386.429C559.284 387.67 559.861 393.534 562.93 394.002C563.853 394.215 564.37 393.373 564.289 392.778C564.156 391.865 561.368 388.979 563.68 388.246C571.973 385.614 567.141 389.249 568.023 391.218C569.998 395.63 572.891 393.094 575.688 393.132C576.352 393.142 576.584 395.397 576.935 396.332C577.626 397.325 577.693 397.362 578.14 398.398C577.864 399.095 577.269 401.925 577.01 401.981C571.363 403.215 566.401 401.321 561.334 399.493C560.639 401.148 559.999 402.706 559.254 404.344C556.534 403.164 552.245 401.075 549.786 400.163C547.188 399.784 547.337 398.816 547.314 396.395L547.298 395.376C546.835 394.528 546.285 393.127 545.098 393.646C541.8 395.087 538.226 394.169 534.749 394.963C534.015 395.13 532.692 395.229 531.874 395.356C531.804 395.139 531.735 394.922 531.666 394.704C530.97 394.95 530.491 394.874 529.77 394.742C531.638 391.973 533.716 390.023 535.304 387.195C535.777 386.352 535.689 384.687 536.383 384.218L536.22 384.334C536.381 384.274 536.577 384.124 536.799 384.226C538.939 385.215 542.742 382.206 544.721 382.49C544.884 382.553 545.182 383.038 545.206 383.159C546.087 387.574 553.788 387.312 553.196 391.954L553.558 392.199C554.637 390.427 554.785 389.691 555.607 387.829Z"/><path fill="#3B0C6F" d="M547.298 395.376C549.908 397.275 549.518 397.15 549.786 400.163C547.188 399.784 547.337 398.816 547.314 396.395L547.298 395.376Z"/><path fill="#E1C8FC" d="M553.558 392.199C550.776 395.294 546.474 391.956 553.196 391.954L553.558 392.199Z"/><path fill="#280754" d="M441.465 432.05C438.698 432.665 436.346 431.945 434.011 432.128C431.828 432.684 431.935 431.951 432.031 429.749C432.234 425.067 427.68 429.389 426.31 426.353C425.97 425.6 427.273 422.484 427.68 421.815C429.351 419.072 426.844 419.396 424.723 419.018C422.543 418.822 422.398 424.425 419.261 424.059C415.297 423.596 413.578 420.255 414.445 416.501C414.907 414.631 414.378 410.128 416.054 408.768C420.007 405.559 423.404 408.498 426.777 408.749C427.454 408.032 427.491 406.725 428.702 406.654C431.185 406.559 432.941 407.078 434.824 408.679C436.654 410.235 434.884 412.135 436.88 413.764C437.355 414.152 437.748 414.886 438.451 414.842C438.796 414.822 439.112 414.643 439.307 414.358C439.43 414.177 439.554 413.996 439.678 413.815L440.405 413.955C440.685 415.508 440.666 415.338 441.35 416.69L441.148 417.329L441.209 417.323C440.874 417.428 434.813 415.333 434.274 417.761C434.463 418.319 436.805 418.505 437.246 418.577C438.898 418.845 440.074 420.032 441.459 420.907L441.782 422.329C443.037 423.075 443.94 423.113 445.252 422.426C445.718 422.973 446.225 423.815 446.628 424.432C445.51 426.075 445.953 430.004 445.937 432.268C444.399 432.227 442.984 432.099 441.465 432.05Z"/><path fill="#CCA7FA" d="M441.782 422.329C443.037 423.075 443.94 423.113 445.252 422.426C445.718 422.973 446.225 423.815 446.628 424.432C445.51 426.075 445.953 430.004 445.937 432.268C444.399 432.227 442.984 432.099 441.465 432.05C441.435 430.863 441.755 426.284 440.902 425.555C439.426 424.294 440.961 423.829 441.782 422.329Z"/><path fill="#280754" d="M442.836 350.661C442.817 350.685 444.757 348.238 444.682 348.302C445.912 347.249 443.403 345.079 444.261 344.811C446.158 344.22 449.47 344.873 451.433 345.129C453.606 347.044 454.928 347.963 456.434 350.358C456.454 352.817 457.953 351.633 456.387 354.043C454.602 355.737 455.412 358.023 452.245 356.559C451.019 355.993 447.112 354.148 447.097 357.502C447.084 360.419 447.354 363.409 447.628 366.358C446.258 367.375 445.702 367.502 444.218 368.919C442.745 370.323 444.598 375.848 442.394 374.713C440.442 373.707 440.299 369.517 440.045 367.458C437.076 366.789 431.185 365.528 428.81 363.882C422.745 359.68 437.151 354.493 438.695 352.504L439.535 352.55L439.771 352.373C439.902 352.328 440.033 352.282 440.164 352.237L440.341 352.434C441.497 351.737 441.835 351.553 442.836 350.661Z"/><path fill="#E1C8FC" d="M442.836 350.661C443.18 351.053 443.515 351.397 443.875 351.773C444.56 357.898 440.911 355.684 439.535 352.55L439.771 352.373C439.902 352.328 440.033 352.282 440.164 352.237L440.341 352.434C441.497 351.737 441.835 351.553 442.836 350.661Z"/><path fill="#1E0846" d="M442.836 350.661C443.18 351.053 443.515 351.397 443.875 351.773L443.51 352.408C442.406 354.594 442.232 353.786 440.341 352.434C441.497 351.737 441.835 351.553 442.836 350.661Z"/><path fill="#CCA7FA" d="M456.434 350.358C456.454 352.817 457.953 351.633 456.387 354.043L455.776 353.942C450.68 353.147 450.496 349.782 456.434 350.358Z"/><path fill="#E1C8FC" d="M450.275 352.212C450.399 352.154 451.241 351.603 451.419 351.997C451.392 352.361 451.09 352.582 450.845 352.857C449.242 353.329 449.72 352.961 450.275 352.212Z"/><path fill="#280754" d="M604.237 413.056C602.759 411.35 598.361 406.333 598.019 404.487C597.875 403.711 600.706 402.461 601.602 405.187C602.265 407.206 606.729 408.716 608.901 409.122C610.015 409.085 610.191 408.958 610.994 409.812L610.399 410.536L609.842 410.481C607.949 411.297 606.224 412.211 604.237 413.056Z"/><path fill="#6B4A9C" d="M608.901 409.122C610.015 409.085 610.191 408.958 610.994 409.812L610.399 410.536L609.842 410.481C609.535 410.023 609.222 409.57 608.901 409.122Z"/><path fill="#1E0846" d="M570.87 347.086C572.903 347.494 575.866 348.748 577.74 348.461C580.218 348.08 580.977 348.921 578.244 350.245C576.545 351.508 575.473 352.203 573.61 353.183C572.129 351.003 570.251 349.48 570.87 347.086Z"/><path fill="#E1C8FC" d="M573.564 348.824C575.274 349.386 576.476 349.283 576.116 351.221C573.533 351.13 572.687 351.447 573.564 348.824Z"/><path fill="#1E0846" d="M555.313 356.561C555.054 356.316 552.631 354.29 553.209 353.704C554.831 352.052 556.917 349.378 558.963 348.388C559.162 348.291 562.35 350.868 560.529 351.547C559.366 351.98 557.915 353.396 557.046 354.29C556.48 355.165 555.89 355.581 555.313 356.561Z"/><path fill="#1E0846" d="M571.121 381.137C572.328 381.79 573.122 384.43 573.01 385.758C572.952 386.458 571.531 386.982 570.938 387.333C570.576 387.141 568.069 386.086 568.245 385.275C568.471 384.232 570.29 383.74 570.601 382.456C570.637 382.305 571.121 381.137 571.121 381.137Z"/><path fill="#280754" d="M419.104 346.097C421.016 346.149 426.103 346.013 421.382 348.221C420.27 348.324 413.886 348.463 418.469 346.395L419.104 346.097Z"/><path fill="#3B0C6F" d="M576.935 396.332C579.485 390.38 582.584 396.246 578.14 398.398C577.693 397.362 577.626 397.325 576.935 396.332Z"/><path fill="#1E0846" d="M529.77 394.742C530.491 394.874 530.97 394.95 531.666 394.704C531.735 394.922 531.804 395.139 531.874 395.356C530.26 396.014 529.817 396.051 528.053 396.404C526.465 396.221 526.269 395.853 524.818 394.968C526.945 394.999 527.646 395.052 529.77 394.742Z"/><path fill="#3B0C6F" d="M581.485 411.871C582.833 413.718 585.052 416.377 584.779 418.537C582.891 417.494 581.659 414.015 581.485 411.871Z"/><path fill="#6B4A9C" d="M439.678 413.815C439.176 412.335 438.495 409.009 439.391 407.688L439.351 407.629C440.119 407.684 440.324 413.097 440.405 413.955L439.678 413.815Z"/><path fill="#CCA7FA" d="M437.281 347.226L438.261 347.614C438.049 349.649 438.418 350.446 438.695 352.504C437.134 350.068 437.347 350.315 437.281 347.226Z"/><path fill="#280754" d="M420.537 431.063C421.301 431.342 422.824 431.822 423.502 432.273C423.066 432.649 420.345 432.671 419.692 432.706L420.537 431.063Z"/><path fill="#CCA7FA" d="M411.974 346.515C412.257 346.497 412.144 346.483 412.329 346.535C412.474 346.679 412.388 346.567 412.574 346.96C412.326 347.039 412.209 347.131 412.009 347.036C411.957 346.83 411.98 346.978 411.974 346.515Z"/></svg>