<?xml version="1.0" encoding="utf-8" ?><svg xmlns="http://www.w3.org/2000/svg" xmlns:xlink="http://www.w3.org/1999/xlink" width="1024" height="1024" viewBox="0 0 1024 1024"><path fill="#FEA102" d="M498.53 149.288C503.971 148.783 511.091 148.769 516.59 148.828C579.738 149.773 639.981 175.52 684.305 220.508C762.576 298.942 778.477 420.139 723.089 516.109C714.448 531.476 704.005 545.757 691.981 558.65C686.024 565.157 678.555 571.991 673.052 578.617C635.341 624.03 622.822 673.063 622.213 730.466L525.75 730.449L401.558 730.492C401.411 675.795 388.306 623.351 352.814 580.662C346.872 573.065 339.465 566.875 332.92 559.842C246.863 467.351 247.851 323.438 330.884 230.216C373.61 181.793 434.039 152.622 498.53 149.288Z"/><path fill="#FEA102" d="M420.295 743.25L568.263 743.219L610.536 743.307C624.011 743.337 639.174 741.025 649.631 750.854C654.768 755.598 657.743 762.235 657.865 769.227C657.986 780.62 650.352 792.649 639.465 795.38C629.759 797.815 615.471 797.008 605.293 797.01L458.105 797.031L414.578 796.996C406.194 796.952 394.428 797.415 386.432 795.84C375.357 793.659 366.525 781.547 366.32 770.78C366.236 763.385 369.145 756.269 374.385 751.05C382.841 742.544 392.499 743.293 403.336 743.265L420.295 743.25Z"/><path fill="#FEA102" d="M420.143 809.124C431.86 808.584 445.777 808.928 457.618 808.942L522.204 808.994L574.503 809.029C584.607 809.031 605.524 807.431 614.061 812.166C627.153 819.427 631.817 838.114 623.27 850.681C618.465 857.744 612.929 860.223 604.956 861.964C593.292 862.604 578.514 862.116 566.594 862.101L499.662 862.174L447.583 862.195C438.2 862.192 428.345 862.352 418.993 861.825C415.715 861.641 410.358 859.28 407.65 857.377C402.03 853.378 398.244 847.296 397.137 840.488C394.568 824.476 404.457 811.829 420.143 809.124Z"/><path fill="#FEA102" d="M464.592 874.255C479.776 873.737 496.145 874.383 511.579 874.445C528.528 874.514 550.115 873.837 566.725 875.547C585.466 877.475 594.797 905.16 580.999 918.713C573.846 925.739 569.514 927.322 559.628 927.833L493.258 927.922C484.534 927.925 467.92 928.722 459.786 927.316C427.217 921.683 429.273 876.24 464.592 874.255Z"/></svg>