<?xml version="1.0" encoding="utf-8" ?><svg xmlns="http://www.w3.org/2000/svg" xmlns:xlink="http://www.w3.org/1999/xlink" width="1024" height="1024" viewBox="0 0 1024 1024"><path fill="#9817CB" d="M172.677 187.658C176.885 187.438 181.34 188.024 185.263 189.545C204.95 197.176 224.229 206.568 243.543 215.032L316.559 247.498C330.09 253.545 343.827 259.361 357.216 265.689C357.443 271.681 357.164 279.228 357.131 285.326L357.051 322.521L357.007 441.54L357.125 859.033C351.639 857.476 341.986 853.258 336.327 850.964C294.425 835.27 252.66 819.213 211.037 802.794C189.888 794.574 165.228 785.843 144.541 776.967C143.994 763.632 144.308 748.402 144.303 734.914L144.232 664.623L144.273 437.711L144.274 289.216L144.285 244.906C144.274 229.384 142.017 210.785 152.436 198.175C158.212 191.184 163.986 188.603 172.677 187.658Z"/><path fill="#9817CB" d="M795.128 239.735C800.141 240.609 819.184 247.805 824.668 249.975C838.673 255.518 855.419 260.864 869.013 266.843L868.957 857.858C862.728 856.017 855.558 853.045 849.38 850.704L818.488 838.914C802.122 832.542 784.904 826.574 768.876 819.793L708.744 796.524C691.893 790.112 672.961 783.304 656.533 776.158C655.837 762.145 656.399 743.302 656.416 729L656.757 628.675L656.509 541.594C656.51 528.264 656.001 509.171 657 496.161C660.161 491.625 665.626 485.864 669.317 481.436C676.877 472.365 684.476 463.537 691.492 454.007C729.595 402.244 763.571 345.561 783.515 284.159C787.949 270.51 791.703 253.84 795.128 239.735Z"/><path fill="#9817CB" d="M462.113 240.929C463.448 241.316 464.191 251.217 464.505 253.201C474.325 315.153 503.579 373.226 539.783 423.833C561.701 454.47 582.532 480.491 610.475 505.877C610.941 517.744 610.553 530.947 610.522 542.955L610.436 608.459C610.43 664.345 611.055 721.278 610.276 777.086C598.858 782.09 586.627 786.355 575.008 790.907L510.375 816.719L442.822 843.341C430.925 848.14 414.599 855.635 402.826 859.393C403.231 841.815 402.972 823.61 403.079 805.974C403.436 766.217 403.577 726.457 403.502 686.698L403.467 417.522L403.381 320.949C403.359 303.05 402.952 283.46 403.527 265.659C408.242 263.227 416.124 260.096 421.152 257.962L462.113 240.929Z"/><path fill="#9817CB" d="M623.961 117.235C654.452 116.406 684.046 127.6 706.355 148.402C729.573 170.274 743.661 199.022 744.468 231.108C745.686 279.499 701.166 360.305 672.871 399.442C659.259 418.27 644.112 435.431 628.091 452.188L625.695 454.527C579.471 405.069 513.637 308.941 510.498 239.605C508.932 208.286 520.124 177.668 541.52 154.742C563.669 130.752 591.529 118.578 623.961 117.235ZM629.759 291.307C661.026 289.575 684.973 262.83 683.253 231.562C681.533 200.295 654.798 176.338 623.529 178.045C592.244 179.754 568.27 206.507 569.991 237.792C571.712 269.077 598.475 293.04 629.759 291.307Z"/></svg>